# xmcd CD database file
#
# Track frame offsets:
#	150
#	23512
#	49050
#	70312
#	94425
#	117500
#	139387
#	162637
#	190837
#	218550
#	248512
#	274950
#	298500
#
# Disc length: 4346 seconds
#
# Revision: 0
# Processed by: cddbd v1.5.1PL0 Copyright (c) Steve Scherf et al.
# Submitted via: CDex 1.51
#
DISCID=c710f80d
DTITLE=CHAGE&ASKA - VERY BEST ROLL OVER 20TH DISC02
DYEAR=1900
DGENRE=New Age
TTITLE0=DO YA DO
TTITLE1=太陽と埃の中で
TTITLE2=SAY YES
TTITLE3=僕はこの瞳で嘘をつく
TTITLE4=no no darlin'
TTITLE5=YAH YAH YAH
TTITLE6=Songs and Daughters 〜それより僕が伝えたいのは
TTITLE7=You are free
TTITLE8=HEART
TTITLE9=On Youe Mark
TTITLE10=めぐり逢い
TTITLE11=river
TTITLE12=NとLの野球帽
EXTD=
EXTT0=
EXTT1=
EXTT2=
EXTT3=
EXTT4=
EXTT5=
EXTT6=
EXTT7=
EXTT8=
EXTT9=
EXTT10=
EXTT11=
EXTT12=
PLAYORDER=
